<svg width="32" height="32" viewBox="0 0 32 32" fill="none" xmlns="http://www.w3.org/2000/svg">
<g clip-path="url(#clip0_19_2)">
<rect width="32" height="32" fill="white"/>
<rect width="32" height="32" rx="5" fill="#171E34"/>
<path d="M2.63477 13.8477C2.63477 13.6289 2.70898 13.4453 2.85742 13.2969C3.01367 13.1406 3.20117 13.0625 3.41992 13.0625H10.2402C10.459 13.0625 10.6465 13.1367 10.8027 13.2852C10.9512 13.4414 11.0254 13.6289 11.0254 13.8477C11.0254 14.0664 10.9473 14.2539 10.791 14.4102C10.6426 14.5586 10.459 14.6328 10.2402 14.6328H7.62695V19.3789C7.58008 19.8477 7.32227 20.1016 6.85352 20.1406C6.63477 20.1406 6.44336 20.0703 6.2793 19.9297C6.12305 19.7812 6.04492 19.5977 6.04492 19.3789V14.6328H3.41992C3.20117 14.6328 3.01758 14.5547 2.86914 14.3984C2.71289 14.25 2.63477 14.0664 2.63477 13.8477ZM12.0332 13.8477C12.0332 13.6289 12.1074 13.4453 12.2559 13.2969C12.4121 13.1406 12.5996 13.0625 12.8184 13.0625H19.6387C19.8574 13.0625 20.0449 13.1367 20.2012 13.2852C20.3496 13.4414 20.4238 13.6289 20.4238 13.8477C20.4238 14.0664 20.3457 14.2539 20.1895 14.4102C20.041 14.5586 19.8574 14.6328 19.6387 14.6328H17.0254V19.3789C16.9785 19.8477 16.7207 20.1016 16.252 20.1406C16.0332 20.1406 15.8418 20.0703 15.6777 19.9297C15.5215 19.7812 15.4434 19.5977 15.4434 19.3789V14.6328H12.8184C12.5996 14.6328 12.416 14.5547 12.2676 14.3984C12.1113 14.25 12.0332 14.0664 12.0332 13.8477ZM23.8926 19.3555C23.5332 18.8164 23.1738 18.1094 22.8145 17.2344L21.5254 13.9062C21.4863 13.8203 21.4629 13.7266 21.4551 13.625C21.4395 13.4062 21.502 13.2188 21.6426 13.0625C21.791 12.9062 21.9785 12.8281 22.2051 12.8281C22.4473 12.8281 22.627 12.8828 22.7441 12.9922C22.8691 13.0938 22.9707 13.2266 23.0488 13.3906L24.1621 16.4375C24.2871 16.7578 24.4082 17.0625 24.5254 17.3516C24.6504 17.6328 24.7871 17.8906 24.9355 18.125C25.084 18.3594 25.252 18.4844 25.4395 18.5C25.6191 18.4844 25.7793 18.3594 25.9199 18.125C26.0762 17.8906 26.2129 17.6328 26.3301 17.3516C26.4551 17.0625 26.5801 16.7578 26.7051 16.4375L27.7949 13.3906C27.873 13.2266 27.9707 13.0938 28.0879 12.9922C28.2129 12.8828 28.4043 12.8281 28.6621 12.8281C28.8887 12.8281 29.0723 12.9062 29.2129 13.0625C29.3613 13.2188 29.4277 13.4062 29.4121 13.625C29.4043 13.7266 29.3809 13.8203 29.3418 13.9062L28.0527 17.2344C27.6934 18.125 27.334 18.8359 26.9746 19.3672C26.623 19.8906 26.1113 20.1562 25.4395 20.1641C24.7598 20.1562 24.2441 19.8867 23.8926 19.3555Z" fill="white"/>
</g>
<defs>
<clipPath id="clip0_19_2">
<rect width="32" height="32" fill="white"/>
</clipPath>
</defs>
</svg>
